<?xml version="1.0" encoding="utf-8"?>
<!-- Generator: Adobe Illustrator 22.0.1, SVG Export Plug-In . SVG Version: 6.00 Build 0)  -->
<svg version="1.1" id="레이어_1" xmlns="http://www.w3.org/2000/svg" xmlns:xlink="http://www.w3.org/1999/xlink" x="0px"
	 y="0px" viewBox="0 0 500 500" style="enable-background:new 0 0 500 500;" xml:space="preserve">
<style type="text/css">
	.st0{fill:#A6FF53;}
</style>
<g>
	<path d="M196.25,297.102L399.018,94.334C360.314,57.273,307.818,34.5,250,34.5c-115.361,0-209.548,90.646-215.227,204.597
		l51.736-51.736L196.25,297.102z"/>
</g>
<g>
	<path d="M196.25,420.139L34.685,258.573C39.188,373.614,133.855,465.5,250,465.5c119.017,0,215.5-96.483,215.5-215.5
		c0-29.291-5.855-57.212-16.44-82.671L196.25,420.139z"/>
</g>
<path class="st0" d="M449.06,167.329c-11.531-27.734-28.682-52.541-50.042-72.995L196.25,297.102L86.51,187.361l-51.736,51.736
	c-0.18,3.612-0.273,7.247-0.273,10.903c0,2.873,0.073,5.728,0.185,8.573L196.25,420.139L449.06,167.329z"/>
</svg>
